# xmcd
#
# Track frame offsets: 
#        150
#        16725
#        37175
#        54200
#        65900
#        77035
#        90000
#        108575
#        128047
#        141200
#        153475
#        167675
#        177882
#        187400
#        198865
#        208175
#        220625
#        236467
#        250315
#        263335
#        279212
#
# Disc length: 3858 seconds
#
# Revision: 2
# Processed by: cddbd v1.5.2PL0 Copyright (c) Steve Scherf et al.
# Submitted via: ExactAudioCopy v1.0b1
#
DISCID=1f0f1015
DTITLE=Johnny Cash - The Man In Black 1954-1958 - Disc 5
DYEAR=1990
DGENRE=Country
TTITLE0=Lead Me Father (alt - takes 1-4) (stereo)
TTITLE1=Lead Me Father (alt - takes 5-9) (stereo)
TTITLE2=Lead Me Father (alt - takes 10-12) (stereo)
TTITLE3=Lead Me Father (master - take 13) (stereo)
TTITLE4=That's Enough (alt - takes 1-3) (stereo)
TTITLE5=That's Enough (master - take 4) (stereo)
TTITLE6=I Still Miss Someone (alt - takes 1-5) (stereo)
TTITLE7=I Still Miss Someone (alt - takes 6-8) (stereo)
TTITLE8=I Still Miss Someone (alt - takes 9-10) (stereo)
TTITLE9=I Still Miss Someone (master - take 11) (stereo)
TTITLE10=One More Ride (alt - takes 1-4) (stereo)
TTITLE11=One More Ride (alt - takes 5-11) (stereo)
TTITLE12=One More Ride (master - take 12) (stereo)
TTITLE13=Pickin' Time (alt - takes 1-2) (stereo)
TTITLE14=Pickin' Time (master - take 3) (stereo)
TTITLE15=Don't Take Your Guns To Town (alt - takes 1-4) (stereo)
TTITLE16=Don't Take Your Guns To Town (alt - takes 5-6) (stereo)
TTITLE17=Don't Take Your Guns To Town (master - take 4) (stereo)
TTITLE18=I'd Rather Die Young (alt - take 1 and master - take 2) (stereo
TTITLE18=)
TTITLE19=The Shepherd Of My Heart (alt - takes 1-2 and master - take 3) 
TTITLE19=(stereo)
TTITLE20=Cold Shoulder (alt - take 1 and master - take 2) (stereo)
EXTD=YEAR: 1990 ID3G: 2
EXTT0=
EXTT1=
EXTT2=
EXTT3=
EXTT4=
EXTT5=
EXTT6=
EXTT7=
EXTT8=
EXTT9=
EXTT10=
EXTT11=
EXTT12=
EXTT13=
EXTT14=
EXTT15=
EXTT16=
EXTT17=
EXTT18=
EXTT19=
EXTT20=
PLAYORDER=
